<svg width="24" height="24" viewBox="0 0 24 24" fill="none" xmlns="http://www.w3.org/2000/svg">
<g clip-path="url(#clip0_2_2083)">
<path d="M21.8182 4.46909L9.37091 16.9273L4.74545 12.3018L6.28364 10.7636L9.37091 13.8509L20.28 2.94182L21.8182 4.46909ZM10.9091 20.6364C6.09818 20.6364 2.18182 16.72 2.18182 11.9091C2.18182 7.09818 6.09818 3.18182 10.9091 3.18182C12.6218 3.18182 14.2255 3.68364 15.5782 4.54545L17.16 2.96364C15.3818 1.73091 13.2327 1 10.9091 1C4.88727 1 0 5.88727 0 11.9091C0 17.9309 4.88727 22.8182 10.9091 22.8182C12.7964 22.8182 14.5745 22.3382 16.1236 21.4873L14.4873 19.8509C13.3964 20.3527 12.1855 20.6364 10.9091 20.6364ZM18.5455 15.1818H15.2727V17.3636H18.5455V20.6364H20.7273V17.3636H24V15.1818H20.7273V11.9091H18.5455V15.1818Z" fill="black"/>
</g>
<defs>
<clipPath id="clip0_2_2083">
<rect width="24" height="24" fill="white"/>
</clipPath>
</defs>
</svg>
