<svg width="24" height="24" viewBox="0 0 24 24" fill="none" xmlns="http://www.w3.org/2000/svg">
<path d="M11.9979 3.64849C10.7258 3.64845 9.50242 4.1381 8.58163 5.01588C7.66083 5.89365 7.11326 7.09218 7.05248 8.36287C7.04257 8.57497 6.95128 8.77509 6.79759 8.9216C6.64391 9.06812 6.43966 9.14975 6.22732 9.14952H5.94677C5.51333 9.14952 5.08413 9.23489 4.68368 9.40076C4.28323 9.56663 3.91938 9.80975 3.61289 10.1162C3.3064 10.4227 3.06327 10.7866 2.8974 11.187C2.73153 11.5875 2.64616 12.0167 2.64616 12.4501C2.64616 12.8836 2.73153 13.3128 2.8974 13.7132C3.06327 14.1137 3.3064 14.4775 3.61289 14.784C3.91938 15.0905 4.28323 15.3336 4.68368 15.4995C5.08413 15.6654 5.51333 15.7507 5.94677 15.7507H9.88111C9.79707 16.2966 9.77603 16.8504 9.81839 17.4011H5.94677C4.67447 17.4 3.45141 16.9091 2.53135 16.0304C1.61129 15.1516 1.06485 13.9524 1.00541 12.6814C0.94597 11.4105 1.37809 10.1655 2.21211 9.20469C3.04613 8.24388 4.21804 7.64103 5.48469 7.52121C5.74073 5.9787 6.53591 4.57711 7.72866 3.56603C8.9214 2.55495 10.4343 2 11.9979 2C13.5615 2 15.0744 2.55495 16.2671 3.56603C17.4599 4.57711 18.2551 5.9787 18.5111 7.52121C19.1652 7.58252 19.8005 7.77338 20.3801 8.08267C20.9596 8.39197 21.4718 8.81351 21.8869 9.32274C22.3019 9.83196 22.6114 10.4187 22.7974 11.0487C22.9834 11.6788 23.0422 12.3396 22.9702 12.9925C22.4528 12.1864 21.7795 11.4917 20.9899 10.9495C20.7132 10.4075 20.2921 9.95259 19.7732 9.63495C19.2542 9.31731 18.6575 9.14931 18.049 9.14952H17.7674C17.5552 9.14947 17.3513 9.06771 17.1978 8.92123C17.0444 8.77474 16.9532 8.57478 16.9433 8.36287C16.8825 7.09218 16.335 5.89365 15.4142 5.01588C14.4934 4.1381 13.27 3.64845 11.9979 3.64849ZM16.9488 22.9021C18.5537 22.9021 20.0928 22.2646 21.2276 21.1297C22.3624 19.9949 22.9999 18.4558 22.9999 16.851C22.9999 15.2461 22.3624 13.707 21.2276 12.5722C20.0928 11.4374 18.5537 10.7998 16.9488 10.7998C15.344 10.7998 13.8048 11.4374 12.67 12.5722C11.5352 13.707 10.8977 15.2461 10.8977 16.851C10.8977 18.4558 11.5352 19.9949 12.67 21.1297C13.8048 22.2646 15.344 22.9021 16.9488 22.9021ZM19.1492 15.2006C18.8933 14.8588 18.5611 14.5813 18.1791 14.3904C17.7971 14.1994 17.3759 14.1001 16.9488 14.1004C16.1347 14.1004 15.403 14.4536 14.898 15.018C14.8006 15.1267 14.6639 15.1922 14.5182 15.2002C14.3724 15.2081 14.2294 15.1578 14.1207 15.0604C14.0121 14.9629 13.9465 14.8263 13.9386 14.6805C13.9306 14.5347 13.9809 14.3918 14.0784 14.2831C14.4394 13.879 14.8817 13.5558 15.3764 13.3347C15.8711 13.1136 16.407 12.9996 16.9488 13.0002C18.027 13.0002 19.0007 13.4436 19.6993 14.1554V13.5503C19.6993 13.4044 19.7573 13.2645 19.8605 13.1614C19.9636 13.0582 20.1035 13.0002 20.2494 13.0002C20.3953 13.0002 20.5353 13.0582 20.6384 13.1614C20.7416 13.2645 20.7995 13.4044 20.7995 13.5503V15.7507C20.7995 15.8966 20.7416 16.0366 20.6384 16.1397C20.5353 16.2429 20.3953 16.3008 20.2494 16.3008H18.049C17.9031 16.3008 17.7632 16.2429 17.66 16.1397C17.5569 16.0366 17.4989 15.8966 17.4989 15.7507C17.4989 15.6049 17.5569 15.4649 17.66 15.3618C17.7632 15.2586 17.9031 15.2006 18.049 15.2006H19.1492ZM13.0981 17.9512C13.0981 17.8053 13.1561 17.6653 13.2592 17.5622C13.3624 17.459 13.5023 17.4011 13.6482 17.4011H15.8486C15.9945 17.4011 16.1344 17.459 16.2376 17.5622C16.3408 17.6653 16.3987 17.8053 16.3987 17.9512C16.3987 18.0971 16.3408 18.237 16.2376 18.3401C16.1344 18.4433 15.9945 18.5013 15.8486 18.5013H14.7484C15.2501 19.1702 16.05 19.6015 16.9488 19.6015C17.763 19.6015 18.4946 19.2483 18.9985 18.6839C19.096 18.5751 19.2327 18.5094 19.3785 18.5013C19.5244 18.4933 19.6675 18.5435 19.7763 18.641C19.8852 18.7384 19.9509 18.8751 19.9589 19.021C19.9669 19.1669 19.9167 19.31 19.8193 19.4188C19.4583 19.8229 19.0159 20.1461 18.5212 20.3672C18.0265 20.5883 17.4907 20.7023 16.9488 20.7017C16.4365 20.7024 15.9292 20.6005 15.4568 20.4021C14.9844 20.2037 14.5565 19.9128 14.1983 19.5465V20.1516C14.1983 20.2975 14.1404 20.4374 14.0372 20.5405C13.934 20.6437 13.7941 20.7017 13.6482 20.7017C13.5023 20.7017 13.3624 20.6437 13.2592 20.5405C13.1561 20.4374 13.0981 20.2975 13.0981 20.1516V17.9512Z" fill="black"/>
</svg>
