<svg width="22" height="22" viewBox="0 0 22 22" fill="none" xmlns="http://www.w3.org/2000/svg">
<path d="M14.6666 7.33333C16.1253 7.33333 17.5243 7.91279 18.5557 8.94424C19.5872 9.97569 20.1666 11.3746 20.1666 12.8333V19.25H16.5V12.8333C16.5 12.3471 16.3068 11.8808 15.963 11.537C15.6192 11.1931 15.1529 11 14.6666 11C14.1804 11 13.7141 11.1931 13.3703 11.537C13.0264 11.8808 12.8333 12.3471 12.8333 12.8333V19.25H9.16663V12.8333C9.16663 11.3746 9.74609 9.97569 10.7775 8.94424C11.809 7.91279 13.2079 7.33333 14.6666 7.33333Z" stroke="black" stroke-width="1.5" stroke-linecap="round" stroke-linejoin="round"/>
<path d="M5.50004 8.25H1.83337V19.25H5.50004V8.25Z" stroke="black" stroke-width="1.5" stroke-linecap="round" stroke-linejoin="round"/>
<path d="M3.66671 5.49999C4.67923 5.49999 5.50004 4.67918 5.50004 3.66666C5.50004 2.65414 4.67923 1.83333 3.66671 1.83333C2.65419 1.83333 1.83337 2.65414 1.83337 3.66666C1.83337 4.67918 2.65419 5.49999 3.66671 5.49999Z" stroke="black" stroke-width="1.5" stroke-linecap="round" stroke-linejoin="round"/>
</svg>
