<svg width="22" height="22" viewBox="0 0 22 22" fill="none" xmlns="http://www.w3.org/2000/svg">
<path d="M20.6617 5.88501C20.5528 5.44996 20.331 5.05136 20.0188 4.72946C19.7065 4.40756 19.3149 4.17376 18.8833 4.05167C17.3067 3.66667 11 3.66667 11 3.66667C11 3.66667 4.69333 3.66667 3.11666 4.08834C2.68514 4.21042 2.29347 4.44423 1.98123 4.76613C1.66898 5.08803 1.44722 5.48663 1.33833 5.92167C1.04978 7.52176 0.908628 9.14496 0.916662 10.7708C0.906376 12.409 1.04753 14.0445 1.33833 15.6567C1.45837 16.0782 1.68511 16.4616 1.99663 16.7699C2.30814 17.0783 2.69391 17.301 3.11666 17.4167C4.69333 17.8383 11 17.8383 11 17.8383C11 17.8383 17.3067 17.8383 18.8833 17.4167C19.3149 17.2946 19.7065 17.0608 20.0188 16.7389C20.331 16.417 20.5528 16.0184 20.6617 15.5833C20.948 13.9953 21.0891 12.3845 21.0833 10.7708C21.0936 9.13271 20.9525 7.49715 20.6617 5.88501Z" stroke="black" stroke-width="1.5" stroke-linecap="round" stroke-linejoin="round"/>
<path d="M8.9375 13.7683L14.2083 10.7708L8.9375 7.77333V13.7683Z" stroke="black" stroke-width="1.5" stroke-linecap="round" stroke-linejoin="round"/>
</svg>
